<?xml version="1.0" encoding="utf-8"?>
<!-- Generator: Adobe Illustrator 27.5.0, SVG Export Plug-In . SVG Version: 6.00 Build 0)  -->
<svg version="1.1" id="Layer_1" xmlns="http://www.w3.org/2000/svg" xmlns:xlink="http://www.w3.org/1999/xlink" x="0px" y="0px"
	 viewBox="0 0 4000 4000" style="enable-background:new 0 0 4000 4000;" xml:space="preserve">
<g>
	<g>
		<rect style="fill:#FFE27A;" width="4000" height="4000"/>
	</g>
	<g>
		<g style="opacity:0.2;">
			<ellipse style="fill:#02025C;" cx="1913.151" cy="3284.105" rx="980.314" ry="96.855"/>
		</g>
		<g>
			<g>
				<path style="fill:#F96C39;" d="M2701,1087.138l-311.575-155.339c0,0-67.694-75.38-62.799-159.972
					c1.79-31.689,13.844-64.747,43.638-95.593c4.159-4.317,8.685-8.633,13.582-12.844c59.64-51.534,121.491-36.111,168.708,2.632
					c5.002,4.106,9.844,8.475,14.476,13.054c40.375,39.743,66.853,95.225,66.379,132.599c0,0,0.105-0.053,0.369-0.21
					c5.317-2.843,67.063-34.953,134.178-31.11c45.059,2.527,92.592,21.372,126.966,76.117c4.159,6.527,8.054,13.528,11.739,21.108
					c6.738,13.844,11.739,27.162,15.055,39.848c0,0,0,0,0.053,0.053C2959.881,1061.082,2794.066,1130.776,2701,1087.138z"/>
			</g>
			<g style="opacity:0.2;">
				<path style="fill:#02025C;" d="M2701,1087.138l-311.575-155.339c0,0-67.694-75.38-62.799-159.972
					c18.318,28.636,47.903,50.271,81.275,57.272c49.219,10.318,103.647-11.897,131.652-53.692
					c24.898-37.216,19.951-70.432,13.002-109.385c5.002,4.106,9.844,8.475,14.476,13.054
					c40.375,39.743,66.853,95.225,66.379,132.599c0,0,0.105-0.053,0.369-0.21c-10.475,11.739-20.635,23.74-26.741,38.006
					c-19.74,45.691,9.581,100.647,52.165,126.493c48.588,29.425,113.649,29.268,162.077-0.421
					c41.27-25.32,68.906-71.011,73.643-119.071c4.159,6.527,8.054,13.528,11.739,21.108c6.738,13.844,11.739,27.162,15.055,39.848
					c0,0,0,0,0.053,0.053C2959.881,1061.082,2794.066,1130.776,2701,1087.138z"/>
			</g>
			<g style="opacity:0.62;">
				<path style="fill:#FFFFFF;" d="M2909.399,1024.181c2.79-18.476,1.79-38.848-4.106-60.956c-0.052-0.053-0.052-0.053-0.052-0.053
					c-3.316-12.686-8.316-26.004-15.054-39.848c-16.213-33.163-36.48-55.903-58.589-70.958c0.474,2.053,0.738,4.106,0.738,6.211
					c0,23.372-29.953,42.375-66.958,42.375c-36.953,0-66.958-19.003-66.958-42.375c0-12.791,8.95-24.214,23.057-31.952
					c-3.053,0.263-6.053,0.579-9.054,0.947c-49.902,6.264-99.332-16.055-126.282-58.535c-9.948-15.634-22.003-30.847-35.584-44.217
					c-13.265-13.107-28.057-24.477-43.902-32.9c-2.79,13.265-27.741,23.635-58.113,23.635c-29.953,0-54.693-10.107-57.958-23.109
					c-7.738,4.474-15.476,10.001-23.214,16.687c-4.895,4.211-9.423,8.528-13.58,12.844c-10.582,10.949-18.898,22.161-25.32,33.479
					c4.632-26.583,17.108-53.692,41.796-79.222c4.159-4.317,8.685-8.633,13.582-12.844c65.956-57.009,134.651-32.11,183.185,15.686
					c40.375,39.743,66.853,95.225,66.379,132.599c0,0,64.325-35.321,134.547-31.321c50.428,2.843,103.91,26.057,138.705,97.225
					c6.738,13.844,11.739,27.162,15.055,39.848c0,0,0,0,0.053,0.053C2932.981,959.803,2926.507,995.756,2909.399,1024.181z"/>
			</g>
			<g>
				<path style="fill:#02025C;" d="M2752.271,1119.404c-21.46,0-42.112-4.097-60.444-12.685c-0.156-0.073-0.315-0.146-0.471-0.225
					l-311.606-155.317c-2.468-1.235-4.68-2.925-6.514-4.985c-3.362-3.779-82.219-93.628-71.826-188.184
					c4.9-44.575,28.384-82.314,69.797-112.178c48.352-34.863,105.652-38.12,161.35-9.16c55.84,29.028,104.028,89.414,118.25,143.491
					c34.646-13.442,96.711-30.488,158.538-12.368c49.146,14.395,88.286,47.866,116.335,99.482
					c34.333,63.174,24.854,132.71-25.359,186.011C2860.513,1095.541,2804.046,1119.404,2752.271,1119.404z M2710.416,1067.631
					c45.632,21.216,115.144,1.9,158.403-44.023c21.921-23.272,53.521-71.841,18.833-135.669
					c-22.3-41.035-52.656-67.461-90.227-78.54c-73.564-21.714-152.822,20.84-153.613,21.274c-6.753,3.677-14.968,3.511-21.545-0.449
					c-6.587-3.965-10.591-11.118-10.493-18.804c0.505-39.761-41.802-106.523-99.18-136.348
					c-28.613-14.878-71.975-25.933-116.074,5.864c-31.45,22.676-48.481,49.385-52.073,81.66
					c-7.451,66.997,46.167,136.685,58.608,151.836L2710.416,1067.631z"/>
			</g>
			<g>
				<path style="fill:#FFFFFF;" d="M2543.24,3010.203c-71.431,168.605-175.921,257.46-670.259,257.46
					c-494.391,0-810.176-82.697-906.822-422.275c-116.755-410.325,103.436-903.031,197.767-1086.322
					c0.053-0.053,0.053-0.105,0.053-0.158c0.053-0.053,0.053-0.053,0.053-0.053c24.003-46.587,39.795-73.116,39.795-73.116
					c14.108-4.001,28.11-7.791,41.954-11.37c951.303-248.353,1300.355,378.11,1300.355,378.11
					c-116.912,323.522-68.641,566.349-68.641,566.349C2565.98,2758.902,2590.406,2898.976,2543.24,3010.203z"/>
			</g>
			<g style="opacity:0.2;">
				<path style="fill:#02025C;" d="M2543.238,3030.802c-71.431,168.605-175.921,257.46-670.259,257.46
					c-494.391,0-810.176-82.697-906.822-422.275c-116.755-410.325,103.436-903.031,197.767-1086.322
					c-4.738,11.475-223.086,541.082-29.531,1025.261c195.661,489.548,1173.757,338.051,1275.878,172.763
					c102.12-165.236-33.795-441.224-33.795-441.224l71.801-282.675c0,0-59.219-3.369-49.061-105.49
					c0,0-129.705,13.528-168.921-101.963c0,0-101.015,17.582-154.549-106.648c0,0-122.229,44.744-176.501-50.008
					c0,0-124.651,52.271-188.292-27.425c0,0-149.338,50.849-201.926,0c0,0-71.853,75.59-178.975,0
					c-107.068-75.59-107.068-157.971-107.068-157.971s8.106-3.422,22.793-9.317c951.303-248.353,1300.355,378.11,1300.355,378.11
					c-116.912,323.523-68.641,566.349-68.641,566.349C2565.978,2779.5,2590.404,2919.574,2543.238,3030.802z"/>
			</g>
			<g>
				<path style="fill:#02025C;" d="M1872.957,3309.911c-279.368,0-467.744-26.348-610.793-85.43
					c-165.061-68.174-268.691-183.496-316.812-352.549c-77.256-271.416-7.717-577.197,64.221-785.918
					c77.566-225.059,174.695-389.126,175.667-390.757c2.832-4.751,7.375-8.237,12.698-9.746
					c227.007-64.214,439.983-84.629,632.986-60.659c155.088,19.258,297.654,67.026,423.74,141.978
					c215.244,127.954,306.611,288.931,310.396,295.723c3.049,5.469,3.577,11.997,1.448,17.886
					c-105.547,292.041-73.63,519.531-68.418,551.069c91.401,146.44,114.529,291.094,65.098,407.725
					c-32.419,76.499-77.593,154.072-187.656,203.276C2271.256,3289.125,2116.256,3309.911,1872.957,3309.911z M1218.148,1724.794
					c-19.404,33.984-101.055,181.831-167.947,376.162c-69.741,202.617-137.324,498.789-63.223,759.131
					c96.043,337.407,423.643,406.543,885.979,406.543c508.787,0,587.842-96.724,650.381-244.282
					c44.138-104.15,21.367-236.035-64.124-371.362c-1.418-2.246-2.412-4.731-2.93-7.339
					c-1.997-10.054-47.178-247.661,66.033-568.159c-21.326-33.867-112.598-166.733-291.846-272.681
					C2041.334,1691,1712.53,1587.148,1218.148,1724.794z"/>
			</g>
			<g>
				<path style="fill:#FFFFFF;" d="M1710.533,2804.926c-4.158,50.48-45.533,66.272-70.431,71.168
					c-9.423,1.895-15.266,11.16-12.897,20.53c6.527,25.951,12.318,73.801-21.108,105.332
					c-68.432,64.536-460.859,49.481-516.605-350.79c-2.421-16.95-4.159-34.584-5.264-52.955l350.106-135.705
					c0,0,106.648,71.327,187.503,160.814v0.052C1674.054,2681.064,1715.428,2746.337,1710.533,2804.926z"/>
			</g>
			<g style="opacity:0.2;">
				<path style="fill:#02025C;" d="M1710.533,2804.926c-4.158,50.48-45.533,66.272-70.431,71.168
					c-9.423,1.895-15.266,11.16-12.897,20.53c6.527,25.951,12.318,73.801-21.108,105.332
					c-68.432,64.536-460.859,49.481-516.605-350.79c26.636,43.007,151.866,231.614,316.312,260.671
					c116.132,20.534,142.794-18.612,146.464-50.845c2.316-20.34,15.257-38.155,34.691-44.593
					c49.325-16.339,118.927-63.066,34.878-193.028C1674.054,2681.064,1715.428,2746.337,1710.533,2804.926z"/>
			</g>
			<g>
				<path style="fill:#02025C;" d="M1438.382,2456.455c113.597,57.483,315.52,218.623,292.94,360.891
					c-7.837,45.965-47.698,73.266-85.846,79.646c1.945-0.989,3.215-3.24,2.825-5.41c5.122,20.532,7.603,43.616,3.891,66.541
					c-4.707,28.818-21.214,57.148-47.401,71.592c-5.911,3.649-12.709,6.356-18.968,9.011
					c-33.784,12.322-70.018,15.281-105.661,14.427c-97.743-3.534-194.663-41.107-267.029-107.222
					c-96.889-86.424-139.987-220.666-138.702-347.107c0.02-5.432,4.44-9.819,9.873-9.797c4.988,0.017,9.094,3.745,9.716,8.56
					c7.89,60.571,22.12,119.707,45.717,174.275c59.383,138.282,191.75,229.643,342.06,236.049
					c32.724,0.976,66.978-0.946,97.227-14.227c30.044-14.39,35.079-51.011,29.296-81.465c-1.206-7.419-3.922-14.728-3.245-22.363
					c0.912-16.865,14.141-31.788,30.682-34.966c40.059-8.168,57.873-32.978,51.553-73.179
					c-18.097-108.398-176.561-237.49-257.01-313.169C1424.02,2463.292,1430.6,2452.504,1438.382,2456.455L1438.382,2456.455z"/>
			</g>
			<g>
				<path style="fill:#FFFFFF;" d="M2046.848,3142.029c-43.797-16.423-58.22-62.588-62.905-88.855
					c-1.736-9.581-10.948-15.845-20.371-14.054c-24.898,4.79-69.484,5.79-94.172-39.007c-29.479-53.481-16.951-131.862,8.58-206.347
					c0.053-0.053,0.053-0.053,0.053-0.053c37.742-110.227,103.805-211.98,103.805-211.98l377.952-6.527
					c6.264,16.424,11.686,32.479,16.318,48.165c0,0,0,0,0,0.053C2492.388,3014.01,2136.597,3175.771,2046.848,3142.029z"/>
			</g>
			<g style="opacity:0.2;">
				<path style="fill:#02025C;" d="M2046.848,3142.029c-43.797-16.423-58.22-62.588-62.905-88.855
					c-1.736-9.581-10.948-15.845-20.371-14.054c-24.898,4.79-69.484,5.79-94.172-39.007c-29.479-53.481-16.951-131.862,8.58-206.347
					c0.053-0.053,0.053-0.053,0.053-0.053c-32.9,180.343,134.547,133.757,134.547,133.757
					c-2.685,127.335,111.083,144.975,225.771,41.48c157.202-141.86,139.127-339.736,137.757-345.526
					C2492.388,3014.01,2136.597,3175.771,2046.848,3142.029z"/>
			</g>
			<g>
				<path style="fill:#02025C;" d="M1987.949,2585.688c-42.313,98.152-149.654,304.195-98.916,403.694
					c12.471,24.612,38.497,33.483,65.436,29.245c14.002-3.404,29.704-0.651,39.931,9.965c8.906,8.04,10.854,20.523,13.232,31.367
					c7.303,28.824,24.774,58.506,55.698,63.433c33.281,3.543,66.798-7.986,98.842-21.704
					c105.775-47.152,187.493-145.376,210.15-259.398c17.782-87.91,4.187-177.324-21.718-263.593
					c-3.514-11.397,13.083-18.148,18.352-6.972c28.793,63.595,48.043,134.417,48.927,205.885c0,0,0.24,12.019,0.24,12.019
					l-0.602,12.036c-0.264,7.353-0.724,16.94-1.57,24.089c-0.001,0-3.179,24.014-3.179,24.014
					c-20.533,129.502-112.85,241.495-232.27,293.312c-45.012,18.485-104.351,38.238-152.363,14.653
					c-17.028-8.709-31.443-22.49-41.821-38.217c-12.14-17.942-21.191-45.113-23.376-61.411c0.811,1.72,2.848,2.665,4.718,2.322
					c-39.102,8.721-85.756-2.578-109.913-37.428c-64.175-91.129-6.459-240.319,40.444-328.451
					c22.221-41.276,47.381-80.683,77.568-116.78C1981.299,2571.446,1991.626,2577.89,1987.949,2585.688L1987.949,2585.688z"/>
			</g>
			<g>
				<g>
					<g>
						<path style="fill:#F99639;" d="M1944.823,3331.877c-20.394,0.719-35.932-2.395-47.748-8.528
							c-47.065-24.193-36.265-95.144-42.245-155.124c-3.391-34.302-21.141-60.986-38.143-86.281l-0.049-0.048
							c-10.331-15.427-20.412-30.373-26.729-46.279c-0.001-0.048-0.001-0.048-0.001-0.048c-6.06-15.043-8.686-30.9-5.032-48.817
							c12.356-60.554,55.824-59.74,84.881-51.596c9.492,2.635,17.42,6.036,22.259,8.384c3.192,1.485,5.034,2.539,5.034,2.539
							c25.129-49.823,79.093-53.464,115.55-18.684c0,0,0,0,0.001,0.048c19.155,18.205,33.547,47.045,36.397,85.275
							C2057.328,3123.864,2022.9,3329.003,1944.823,3331.877z"/>
					</g>
					<g style="opacity:0.62;">
						<path style="fill:#FFFFFF;" d="M2050.218,3050.949c-0.168-3.497-0.383-6.947-0.644-10.3
							c-2.849-38.23-17.242-67.07-36.397-85.275c-0.001-0.048-0.001-0.048-0.001-0.048c-36.457-34.781-90.421-31.14-115.55,18.684
							c0,0-1.842-1.054-5.034-2.539c-4.839-2.347-12.767-5.749-22.259-8.384c-29.056-8.144-72.525-8.958-84.88,51.596
							c-0.261,1.294-0.521,2.587-0.687,3.881c-1.978-9.965-2.196-20.504,0.11-31.811c12.356-60.554,55.824-59.74,84.881-51.596
							c9.492,2.635,17.42,6.036,22.259,8.384c3.192,1.485,5.034,2.539,5.034,2.539c25.129-49.823,79.093-53.464,115.55-18.684
							c0,0,0,0,0.001,0.048c19.155,18.205,33.547,47.045,36.397,85.275C2049.864,3024.504,2050.273,3037.392,2050.218,3050.949z"/>
					</g>
					<g>
						<path style="fill:#02025C;" d="M1938.914,3353.613c-29.827,0-52.615-7.695-69.529-23.438
							c-30.662-28.54-32.295-75.063-33.875-120.054c-0.466-13.315-0.95-27.09-2.205-39.795
							c-2.871-29.092-18.438-52.271-34.917-76.807c-20.628-30.723-44.009-65.537-34.714-111.084
							c6.719-32.915,22.231-55.107,46.108-65.962c28.142-12.793,59.448-5.342,79.045,2.095
							c21.389-27.939,53.533-40.811,87.773-33.999c42.712,8.481,88.34,50.894,93.987,126.533
							c6.809,91.162-13.728,250.942-69.998,313.828c-16.297,18.213-34.8,27.822-55,28.56
							C1943.331,3353.573,1941.102,3353.613,1938.914,3353.613z M1843.507,2952.831c-5.64,0-11.094,0.879-15.894,3.081
							c-10.505,4.819-17.749,16.655-21.531,35.176c-5.4,26.46,7.212,46.992,28.237,78.301
							c17.866,26.602,38.115,56.758,42.058,96.689c1.389,14.067,1.897,28.535,2.388,42.524c1.328,37.837,2.583,73.579,20.108,89.893
							c9.316,8.672,24.092,12.505,45.139,11.743c0.003,0,0.003,0,0.003,0c8.103-0.293,16.059-4.927,24.324-14.165
							c42.329-47.31,66.111-187.769,59.092-281.748c-3.955-52.969-32.612-82.017-59.258-87.305
							c-21.555-4.292-40.41,6.221-51.782,28.799c-2.666,5.293-7.383,9.258-13.054,10.977c-5.669,1.704-11.797,1.035-16.948-1.89
							C1879.044,2960.805,1860.452,2952.831,1843.507,2952.831z"/>
					</g>
					<g>
						<path style="fill:#02025C;" d="M1915.298,2957.734c0.679-0.962,0.178,0.061,0.158,0.342l-0.438,1.604
							c-6.537,25.3,2.489,49.131,11.582,73.479c11.139,33.065,23.101,66.922,18.665,103.262
							c-1.807,12.301-19.776,12.409-21.74,0.195c-5.21-30.356-21.291-59.124-34.933-87.251
							c-13.225-24.032-24.626-52.948-20.943-81.797c1.354-11.808,4.521-22.776,11.179-33.139
							C1894.967,2910.818,1929.957,2933.138,1915.298,2957.734L1915.298,2957.734z"/>
					</g>
				</g>
				<g style="opacity:0.2;">
					<path style="fill:#02025C;" d="M2004.938,3145.758c-17.301,69.322-15.261,175.101-107.863,177.592
						c-47.065-24.193-36.265-95.144-42.245-155.124c-3.391-34.302-21.141-60.986-38.143-86.281l-0.049-0.048
						c-10.331-15.427-20.412-30.373-26.729-46.279c-0.001-0.048-0.001-0.048-0.001-0.048c3.912-37.942,55.337-81.059,100.427-34.158
						c0,0,22.749-37.511,67.849-31.906C2003.285,2975.16,2022.238,3076.388,2004.938,3145.758z"/>
				</g>
			</g>
			<g>
				<g>
					<g>
						<path style="fill:#F99639;" d="M1468.622,3331.877c20.423,0.719,35.833-2.395,47.396-8.528
							c46.066-24.193,32.338-95.144,35.842-155.124c1.975-34.302,18.624-60.986,34.581-86.281l0.047-0.048
							c9.694-15.427,19.159-30.373,24.819-46.279c-0.001-0.048-0.001-0.048-0.001-0.048c5.439-15.043,7.411-30.9,3.016-48.817
							c-14.855-60.554-58.29-59.74-87.01-51.596c-9.383,2.635-17.171,6.036-21.913,8.384c-3.131,1.485-4.93,2.539-4.93,2.539
							c-27.186-49.823-81.3-53.464-116.322-18.684c0,0,0,0,0.001,0.048c-18.403,18.205-31.606,47.045-32.877,85.275
							C1347.53,3123.864,1390.426,3329.003,1468.622,3331.877z"/>
					</g>
					<g style="opacity:0.62;">
						<path style="fill:#FFFFFF;" d="M1351.631,3050.949c0.024-3.497,0.096-6.947,0.218-10.3
							c1.271-38.23,14.473-67.07,32.877-85.275c-0.001-0.048-0.001-0.048-0.001-0.048c35.021-34.781,89.135-31.14,116.321,18.684
							c0,0,1.799-1.054,4.93-2.539c4.742-2.347,12.529-5.749,21.913-8.384c28.72-8.144,72.155-8.958,87.01,51.596
							c0.314,1.294,0.628,2.587,0.847,3.881c1.567-9.965,1.349-20.504-1.423-31.811c-14.855-60.554-58.29-59.74-87.01-51.596
							c-9.383,2.635-17.171,6.036-21.913,8.384c-3.131,1.485-4.93,2.539-4.93,2.539c-27.186-49.823-81.3-53.464-116.322-18.684
							c0,0,0,0,0.001,0.048c-18.403,18.205-31.606,47.045-32.877,85.275C1350.894,3024.504,1351.016,3037.392,1351.631,3050.949z"/>
					</g>
					<g>
						<path style="fill:#02025C;" d="M1474.525,3353.613c-2.188,0-4.407-0.039-6.672-0.122
							c-104.993-3.823-141.416-245.85-138.22-341.499c2.173-65.049,36.108-114.795,86.453-126.733
							c34.578-8.174,68.96,4.761,92.031,33.413c19.06-7.373,49.556-14.819,77.869-2.783c24.614,10.464,41.218,32.573,49.351,65.718
							c11.191,45.596-10.84,80.547-30.276,111.387c-15.4,24.434-29.946,47.51-31.609,76.45c-0.728,12.7-0.645,26.47-0.562,39.785
							c0.278,45.098,0.566,91.733-29.187,120.596C1527.232,3345.805,1504.554,3353.613,1474.525,3353.613z M1436.781,2926.093
							c-3.518,0-7.097,0.425-10.711,1.279c-23.391,5.547-51.355,31.416-53.181,86.064c-4.094,122.5,43.792,294.883,96.538,296.802
							c0.002,0,0.002,0,0.002,0c20.959,0.747,35.386-2.993,44.136-11.475c16.496-16.006,16.267-53.252,16.045-89.272
							c-0.088-13.989-0.176-28.457,0.632-42.529c2.302-40.088,21.375-70.352,38.203-97.046
							c19.634-31.152,31.338-51.587,24.858-77.998c-4.707-19.18-12.869-31.362-24.253-36.201
							c-19.849-8.433-49.055,4.043-57.725,9.077c-5.049,2.944-11.067,3.711-16.699,2.129c-5.625-1.572-10.376-5.356-13.171-10.483
							C1470.804,2936.899,1454.605,2926.093,1436.781,2926.093z"/>
					</g>
					<g>
						<path style="fill:#02025C;" d="M1518.35,2933.908c19.435,28.932,15.861,67.197,2.656,97.529
							c-1.5,4.028-5.993,12.915-7.761,16.958c-12.493,28.165-27.248,57.056-31.321,87.131c-0.436,6.27-6.049,10.998-12.316,10.215
							c-4.872-0.588-8.614-4.294-9.486-8.872c-6.582-41.267,7.526-80.149,19.421-118.286c6.121-18.771,9.273-39.389,3.454-58.264
							l-0.517-1.616c-0.045-0.31-0.566-1.301,0.084-0.449C1467.205,2934.158,1501.518,2910.735,1518.35,2933.908L1518.35,2933.908z"
							/>
					</g>
				</g>
				<g style="opacity:0.2;">
					<path style="fill:#02025C;" d="M1400.824,3145.758c20.162,69.322,22.489,175.101,115.193,177.592
						c46.066-24.193,32.338-95.144,35.842-155.124c1.975-34.302,18.624-60.986,34.581-86.281l0.047-0.048
						c9.694-15.427,19.159-30.373,24.819-46.279c-0.001-0.048-0.001-0.048-0.001-0.048c-5.479-37.942-58.683-81.059-101.837-34.158
						c0,0-24.297-37.511-69.166-31.906C1395.435,2975.16,1380.661,3076.388,1400.824,3145.758z"/>
				</g>
			</g>
			<g>
				<g>
					
						<ellipse transform="matrix(0.7035 -0.7107 0.7107 0.7035 -984.3082 1995.5475)" style="fill:#F99639;" cx="1899.262" cy="2177.345" rx="139.309" ry="142.214"/>
				</g>
				<g style="opacity:0.62;">
					<path style="fill:#FFFFFF;" d="M2030.371,2231.417c0.264-4.106,0.369-8.211,0.264-12.423
						c-0.632-31.584-11.633-60.799-29.741-84.276c-7.685,6.527-30.531,0.263-53.272-14.95
						c-19.582-13.055-33.005-28.846-34.374-39.058c-8.527-1.632-17.319-2.474-26.267-2.474c-58.587,0-108.122,35.795-128.229,86.75
						c4.843-71.958,64.062-128.388,137.599-128.388c77.749,0,142.074,63.009,143.654,140.758
						C2040.424,2196.517,2036.951,2214.783,2030.371,2231.417z"/>
				</g>
				<g>
					<path style="fill:#02025C;" d="M1902.166,2339.74c-89.299,0-163.45-72.651-165.293-161.953
						c-0.896-43.462,15.212-84.351,45.359-115.127c30.139-30.767,70.669-47.71,114.126-47.71
						c89.299,0,163.45,72.646,165.293,161.948l0,0c0.896,43.467-15.212,84.355-45.359,115.132
						C1986.153,2322.797,1945.621,2339.74,1902.166,2339.74z M1896.358,2058.232c-31.726,0-61.277,12.329-83.208,34.717
						c-21.939,22.397-33.66,52.212-33.005,83.95c1.36,65.923,56.099,119.561,122.022,119.561c31.726,0,61.277-12.329,83.208-34.717
						c21.939-22.397,33.66-52.212,33.005-83.955C2017.02,2111.865,1962.281,2058.232,1896.358,2058.232z"/>
				</g>
				<g>
					<path style="fill:#02025C;" d="M2024.708,2249.389l-218.783-80.913c-13.632-5.352-7.166-25.662,7.103-22.085
						c0,0,224.932,61.797,224.932,61.797C2066.398,2217.22,2053.187,2258.623,2024.708,2249.389L2024.708,2249.389z"/>
				</g>
			</g>
			<g>
				<g>
					
						<ellipse transform="matrix(0.0917 -0.9958 0.9958 0.0917 -579.6384 3434.3193)" style="fill:#02025C;" cx="1592.75" cy="2034.896" rx="166.195" ry="137.239"/>
				</g>
				<g>
					
						<ellipse transform="matrix(0.0917 -0.9958 0.9958 0.0917 -519.7653 3467.1313)" style="fill:#FFFFFF;" cx="1640.672" cy="2018.482" rx="68.825" ry="56.834"/>
				</g>
				<g style="opacity:0.29;">
					
						<ellipse transform="matrix(0.0917 -0.9958 0.9958 0.0917 -665.5016 3387.2666)" style="fill:#FFFFFF;" cx="1524.025" cy="2058.437" rx="41.71" ry="34.442"/>
				</g>
			</g>
			<g>
				<g>
					
						<ellipse transform="matrix(0.2265 -0.974 0.974 0.2265 -429.2365 3879.1753)" style="fill:#02025C;" cx="2227.838" cy="2209.849" rx="158.913" ry="131.902"/>
				</g>
				<g>
					
						<ellipse transform="matrix(0.2265 -0.974 0.974 0.2265 -423.8644 3818.001)" style="fill:#FFFFFF;" cx="2192.008" cy="2175.88" rx="65.809" ry="54.623"/>
				</g>
				<g style="opacity:0.29;">
					
						<ellipse transform="matrix(0.2265 -0.974 0.974 0.2265 -436.9389 3966.9099)" style="fill:#FFFFFF;" cx="2279.223" cy="2258.566" rx="39.882" ry="33.103"/>
				</g>
			</g>
			<g>
				<path style="fill:#02025C;" d="M2462.563,2655.078l-58.185-73.699c-6.113-7.773,3.826-18.07,11.785-12.339
					c0,0,76.292,54.739,76.292,54.739C2518.167,2644.53,2484.513,2679.824,2462.563,2655.078L2462.563,2655.078z"/>
			</g>
			<g>
				<path style="fill:#FFBF40;" d="M2771.22,2107.977c-18.791,86.54-100.488,120.808-100.488,120.808s46.638,64.589-26.32,122.597
					c-72.959,58.009-162.499,0-162.499,0l24.477-132.388c-61.588-20.845-69.115-123.335-69.115-123.335
					c-131.546,12.318-150.76-119.492-150.76-119.492c-127.388,16.476-176.71-94.751-176.71-94.751
					c-132.599,45.323-193.503-79.538-193.503-79.538c-105.806,64.641-206.505-22.425-206.505-22.425
					c-93.172,75.222-201.821,0-201.821,0c-76.643,79.328-178.5,15.476-178.5,15.476c-127.862,74.117-161.498-15.476-161.498-15.476
					l-82.328,177.764c-94.014-84.908-14.371-178.764-14.371-178.764c-102.647-181.291,68.853-255.46,68.853-255.46
					c32.426-226.561,218.507-247.143,218.507-247.143c20.213-68.01,59.061-107.753,100.12-130.809
					c40.901-22.951,83.96-29.373,113.122-30.689c21.477-0.948,35.427,0.842,35.427,0.842
					c101.541-160.709,292.57-107.122,292.57-107.122c117.281-107.121,273.568-37.111,273.568-37.111
					c64.063-44.27,261.462-68.695,416.274,15.581c8.475,4.58,16.792,9.528,24.951,14.792c9.212,5.948,18.213,12.318,27.005,19.108
					c159.077,123.545,54.376,238.931,54.376,238.931s92.067,70.011,89.646,152.391c-2.421,82.434-75.959,111.228-75.959,111.228
					s54.114,28.846,55.797,113.753c1.685,84.856-46.849,121.071-46.849,121.071s54.324,37.111,51.482,115.387
					c-2.843,78.222-51.113,102.963-51.113,102.963S2790.012,2021.49,2771.22,2107.977z"/>
			</g>
			<g style="opacity:0.62;">
				<path style="fill:#FFFFFF;" d="M2614.67,1001.336c-309.732-71.221-431.065,22.845-431.065,22.845
					c-180.449-64.904-263.198,29.215-263.198,29.215c-200.873-38.479-286.833,111.122-286.833,111.122l-174.816-19.477
					c40.901-22.951,83.96-29.373,113.122-30.689c21.477-0.948,35.427,0.842,35.427,0.842
					c101.541-160.709,292.57-107.122,292.57-107.122c117.281-107.121,273.568-37.111,273.568-37.111
					c64.063-44.27,261.462-68.695,416.274,15.581C2598.194,991.124,2606.51,996.072,2614.67,1001.336z"/>
			</g>
			<g style="opacity:0.2;">
				<path style="fill:#02025C;" d="M2715.106,1976.168c0,0,48.27-24.741,51.113-102.963c2.843-78.276-51.481-115.387-51.481-115.387
					s48.533-36.215,46.849-121.071c-1.684-84.907-55.797-113.753-55.797-113.753s73.537-28.794,75.958-111.228
					c2.421-82.38-89.646-152.391-89.646-152.391s104.701-115.386-54.376-238.931c-16.582-12.844-33.954-24.109-51.956-33.9
					c32.689,37.9,56.904,83.012,63.484,132.283c8.685,64.904-18.371,136.705-75.169,169.288
					c60.746,32.216,98.225,103.542,90.329,171.816c-7.896,68.326-60.641,129.177-127.124,146.706
					c29.53,58.501,23.531,108.993-59.78,169.731c-53.681,39.136-131.954,21.202-177.098-16.497
					c-100.594,59.167-246.511,18.845-302.467-83.592c-68.906,43.27-168.763,27.426-220.928-35.005
					c-70.064,67.8-191.503,73.168-267.304,11.791c-31.584,71.59-133.02,96.383-199.715,55.482
					c-66.747-40.848-92.856-132.337-68.01-206.505c24.794-74.222,92.962-129.178,168.394-149.813
					c-21.941-147.464,74.068-221.012,157.551-237.878c-58.535,2.685-172.974,25.846-213.242,161.498
					c0,0-186.081,20.582-218.507,247.143c0,0-171.5,74.169-68.853,255.46c0,0-79.644,93.855,14.37,178.764l82.328-177.764
					c0,0,33.637,89.593,161.498,15.476c0,0,101.857,63.852,178.5-15.476c0,0,108.648,75.222,201.82,0
					c0,0,100.699,87.066,206.505,22.425c0,0,60.904,124.861,193.503,79.538c0,0,49.323,111.227,176.71,94.751
					c0,0,19.214,131.809,150.76,119.492c0,0,7.527,102.49,69.115,123.335l-24.477,132.388c0,0,89.54,58.009,162.499,0
					c72.958-58.008,26.32-122.597,26.32-122.597s81.697-34.269,100.488-120.808
					C2786.064,2021.49,2715.106,1976.168,2715.106,1976.168z M2685.522,2121.769c-21.529,44.375-81.75,64.852-125.861,42.848
					c-44.111-22.003-63.957-82.38-41.479-126.282c-36.111,13.002-80.17-1.632-101.28-33.636
					c-21.161-32.005-17.37-78.276,8.739-106.385c26.056-28.109,71.958-35.321,105.437-16.634
					c-0.105-34.426,23.319-67.694,55.744-79.169c49.955-17.74,100.647,14.318,108.491,63.957
					c2.527,16.37-21.793,145.127-54.008,129.914C2685.891,2017.437,2707.052,2077.446,2685.522,2121.769z"/>
			</g>
			<g>
				<path style="fill:#02025C;" d="M2566.073,2399.028c-53.472,0-97.131-27.69-99.878-29.468c-7.351-4.766-11.106-13.486-9.514-22.1
					l21.46-116.025c-42.393-25.542-58.054-82.417-63.577-113.35c-91.841-0.874-134.958-68.711-149.094-118.794
					c-88.354,3.354-145.271-51.025-170.403-92.129c-94.89,23.696-160.491-31.06-190.923-76.401
					c-78.428,36.191-156.78,5.146-198.647-24.233c-71.875,47.368-153.586,24.932-198.796-0.02
					c-62.368,52.129-139.282,34.688-181.245,13.198c-48.547,25.864-90.781,32.651-125.684,20.21
					c-12.966-4.634-23.254-11.411-31.287-18.584l-67.149,144.961c-2.891,6.235-8.572,10.733-15.308,12.104
					c-6.733,1.401-13.723-0.527-18.83-5.137c-78.565-70.928-54.68-153.579-25.515-196.748
					c-29.656-57.671-36.443-111.416-20.159-159.941c20.569-61.289,72.158-95.361,95.003-107.871
					c19.951-117.705,80.801-180.307,129.126-212.29c37.659-24.922,73.357-35.405,92.415-39.565
					c54.604-158.096,207.241-165.635,254.192-164.058c45.161-64.946,111.655-103.911,193.093-112.93
					c46.528-5.156,85.898,0.786,104.69,4.629c107.637-90.029,238.687-51.914,277.334-37.646
					c89.207-50.591,324.644-67.007,483.618,56.489c58.994,45.83,91.287,96.465,95.977,150.508
					c3.933,45.317-12.893,81.597-25.654,101.997c28.464,26.035,84.126,86.157,82.058,156.582
					c-1.75,59.644-34.866,95.22-60.381,113.877c18.24,20.054,39.15,54.927,40.244,110c1.206,60.615-20.837,99.741-37.537,120.557
					c18.689,20.229,44.255,58.809,42.146,117.109c-1.895,52.358-22.065,84.502-39.07,102.466
					c23.142,23.486,54.221,69.131,39.641,136.172c-14.922,68.623-64.087,107.739-92.539,125.151
					c13.079,33.623,14.25,85.903-41.941,130.586C2624.954,2391.381,2594.156,2399.023,2566.073,2399.028z M2502.081,2339.97
					c24.136,11.689,78.96,31.035,124.919-5.513c54.414-43.267,25.596-88.169,22.129-93.145c-3.733-5.366-4.9-12.207-3.076-18.481
					c1.821-6.274,6.326-11.47,12.351-13.999c0.645-0.273,71.636-31.44,87.725-105.435c15.259-70.166-40.381-107.495-42.756-109.053
					c-6.45-4.219-10.222-11.592-9.812-19.287c0.41-7.7,4.832-14.634,11.694-18.149c1.25-0.693,37.046-21.103,39.341-84.512
					c2.373-65.586-41.619-96.387-42.063-96.69c-5.774-3.945-9.29-10.43-9.436-17.422c-0.146-6.987,3.091-13.618,8.694-17.798
					c1.448-1.133,39.6-31.704,38.176-103.335c-1.392-70.024-42.827-94.165-44.59-95.161c-7.456-3.97-11.812-11.855-11.323-20.288
					c0.488-8.438,5.95-15.757,13.816-18.838c2.354-0.957,60.291-25.185,62.244-91.719c1.716-58.467-57.981-116.963-81.128-134.57
					c-4.829-3.672-7.893-9.199-8.45-15.239c-0.554-6.04,1.45-12.036,5.53-16.528c0.251-0.288,32.402-37.08,27.737-87.803
					c-3.804-41.338-30.503-81.543-79.36-119.497c-156.973-121.939-384.287-89.072-442.61-48.726
					c-6.226,4.307-14.253,5.049-21.157,1.948c-5.837-2.578-145.049-62.666-250.132,33.306c-5.518,5.039-13.24,6.875-20.437,4.858
					c-7.141-1.973-176.97-46.904-268.433,97.832c-4.492,7.114-12.7,10.962-21.033,9.907
					c-7.134-0.869-176.228-19.702-225.195,145.356c-2.476,8.345-9.714,14.395-18.367,15.352
					c-6.853,0.806-169.953,22.354-199.463,228.73c-1.067,7.451-5.925,13.813-12.834,16.802
					c-0.562,0.249-62.503,28.076-82.344,87.818c-13.223,39.814-5.247,85.932,23.706,137.075c4.468,7.896,3.538,17.739-2.332,24.658
					c-5.915,7.09-51.392,65.239-8.039,126.079l68.618-148.13c3.667-7.915,11.748-12.92,20.442-12.529
					c8.64,0.322,16.25,5.752,19.37,13.799c0.461,1.128,8.53,20.112,30.771,27.734c24.553,8.428,59.019,0.396,99.69-23.193
					c6.943-4.028,15.549-3.882,22.356,0.386c3.513,2.178,88.176,53.33,151.431-12.139c7.366-7.617,19.165-8.779,27.876-2.754
					c3.87,2.646,96.77,64.844,175.957,0.952c8.142-6.572,19.824-6.372,27.742,0.469c3.606,3.081,90.381,75.718,181.021,20.318
					c5.205-3.184,11.501-4.014,17.353-2.31c5.85,1.709,10.711,5.806,13.381,11.284c2.143,4.321,54.595,106.973,167.08,68.55
					c10.625-3.633,22.234,1.455,26.78,11.704c1.746,3.862,44.927,96.152,154.143,82.065c11.748-1.518,22.49,6.65,24.189,18.34
					c0.034,0.22,4.685,29.556,23.325,56.489c23.428,33.843,58.406,48.799,104.009,44.556c5.811-0.547,11.555,1.265,15.996,5.015
					c4.441,3.755,7.183,9.141,7.61,14.941c1.882,24.541,15.344,91.211,54.468,104.448c10.19,3.447,16.301,13.857,14.346,24.434
					L2502.081,2339.97z"/>
			</g>
			<g style="opacity:0.2;">
				<path style="fill:#02025C;" d="M1927.997,1348.573c-22.833-36.098-123.58-26.143-156.126-16.635
					c-42.359,12.374-67.329,42.531-103.248,62.921c-1.15-33.528,40.834-80.924,68.293-98.467
					C1800.454,1255.799,1889.39,1287.537,1927.997,1348.573z"/>
			</g>
			<g style="opacity:0.2;">
				<path style="fill:#02025C;" d="M2249.262,1565.912c0.807-23.326-47.739-49.851-65.358-55.579
					c-22.932-7.456-43.489-1.53-65.982-3.384c9.804-15.49,43.35-23.959,61.146-23.424
					C2220.25,1484.761,2250.626,1526.472,2249.262,1565.912z"/>
			</g>
			<g style="opacity:0.2;">
				<path style="fill:#02025C;" d="M2273.789,1239.027c1.459-42.193-86.352-90.171-118.222-100.533
					c-41.48-13.486-78.665-2.767-119.351-6.122c17.733-28.018,78.412-43.338,110.604-42.371
					C2221.31,1092.24,2276.256,1167.687,2273.789,1239.027z"/>
			</g>
		</g>
	</g>
</g>
</svg>
